HIERARCHY
ROOT root
{
	OFFSET	0	13.1	24.9
	CHANNELS 6  Xposition Yposition Zposition Xrotation Yrotation Zrotation
	JOINT spine_1
	{
		OFFSET	0	9.99999	0
		CHANNELS 3  Xrotation Yrotation Zrotation
		JOINT spine_2
		{
			OFFSET	0	112	-10
			CHANNELS 3  Xrotation Yrotation Zrotation
			JOINT spine_3
			{
				OFFSET	0	206.5	19.3
				CHANNELS 3  Xrotation Yrotation Zrotation
				JOINT spine_4
				{
					OFFSET	0	110.4	14.6
					CHANNELS 3  Xrotation Yrotation Zrotation
					JOINT neck_1
					{
						OFFSET	0	71.8	-50.3
						CHANNELS 3  Xrotation Yrotation Zrotation
						JOINT neck_2
						{
							OFFSET	0	86.2	-25.8
							CHANNELS 3  Xrotation Yrotation Zrotation
							JOINT head_ee
							{
								OFFSET	0	179.8	-8.7
								CHANNELS 3  Xrotation Yrotation Zrotation
								End Site
								{
									OFFSET	1	0	0
								}
							}
						}
					}
					JOINT left_clavicle
					{
						OFFSET	-43.2	22.4	-70.8
						CHANNELS 3  Xrotation Yrotation Zrotation
						JOINT left_shoulder
						{
							OFFSET	-93.9	-5.79999	48.7
							CHANNELS 3  Xrotation Yrotation Zrotation
							JOINT left_elbow
							{
								OFFSET	-291.4	-30.8	15.2
								CHANNELS 3  Xrotation Yrotation Zrotation
								JOINT left_lowarm_twist
								{
									OFFSET	-110.7	-3.89999	13.6
									CHANNELS 3  Xrotation Yrotation Zrotation
									JOINT left_hand
									{
										OFFSET	-110.7	-3.89999	13.6
										CHANNELS 3  Xrotation Yrotation Zrotation
										JOINT left_ee
										{
											OFFSET	-80.8	-5.10001	12.1
											CHANNELS 3  Xrotation Yrotation Zrotation
											End Site
											{
												OFFSET	1	0	0
											}
										}
									}
								}
							}
						}
					}
					JOINT right_clavicle
					{
						OFFSET	43.2	22.4	-70.8
						CHANNELS 3  Xrotation Yrotation Zrotation
						JOINT right_shoulder
						{
							OFFSET	93.9	-5.79999	48.7
							CHANNELS 3  Xrotation Yrotation Zrotation
							JOINT right_elbow
							{
								OFFSET	291.4	-30.8	15.2
								CHANNELS 3  Xrotation Yrotation Zrotation
								JOINT right_lowarm_twist
								{
									OFFSET	110.7	-3.89999	13.6
									CHANNELS 3  Xrotation Yrotation Zrotation
									JOINT right_hand
									{
										OFFSET	110.7	-3.89999	13.6
										CHANNELS 3  Xrotation Yrotation Zrotation
										JOINT right_ee
										{
											OFFSET	80.8	-5.10001	12.1
											CHANNELS 3  Xrotation Yrotation Zrotation
											End Site
											{
												OFFSET	1	0	0
											}
										}
									}
								}
							}
						}
					}
				}
			}
		}
	}
	JOINT left_hip
	{
		OFFSET	-82.8	-127.5	0.300001
		CHANNELS 3  Xrotation Yrotation Zrotation
		JOINT left_knee
		{
			OFFSET	-28.2	-396.7	2.2
			CHANNELS 3  Xrotation Yrotation Zrotation
			JOINT left_ankle
			{
				OFFSET	-11.7	-411.3	35.4
				CHANNELS 3  Xrotation Yrotation Zrotation
				JOINT left_toes
				{
					OFFSET	0	-60	-88.6
					CHANNELS 3  Xrotation Yrotation Zrotation
					JOINT left_foot_ee
					{
						OFFSET	-22.5	-16.5	-42.2
						CHANNELS 3  Xrotation Yrotation Zrotation
						End Site
						{
							OFFSET	1	0	0
						}
					}
				}
			}
		}
	}
	JOINT right_hip
	{
		OFFSET	82.8	-127.5	0.300001
		CHANNELS 3  Xrotation Yrotation Zrotation
		JOINT right_knee
		{
			OFFSET	28.2	-396.7	2.2
			CHANNELS 3  Xrotation Yrotation Zrotation
			JOINT right_ankle
			{
				OFFSET	11.7	-411.3	35.4
				CHANNELS 3  Xrotation Yrotation Zrotation
				JOINT right_toes
				{
					OFFSET	0	-60	-88.6
					CHANNELS 3  Xrotation Yrotation Zrotation
					JOINT right_foot_ee
					{
						OFFSET	22.5	-16.5	-42.2
						CHANNELS 3  Xrotation Yrotation Zrotation
						End Site
						{
							OFFSET	1	0	0
						}
					}
				}
			}
		}
	}
}
MOTION
Frames: 11
Frame Time: 0.02
3269.71 699.573 -505.594 -4.90646 53.7809 9.17997 -1.22419 -0.597481 -3.39738 -1.21785 -0.380217 -3.42846 -1.18944 0.420288 -3.42379 -1.20578 -0.125377 -3.44718 1.05801 15.9004 7.86105 1.50249 21.6659 9.93206 -0.0 0.0 -0.0 6.34632 13.6374 12.0925 4.60508 -40.7285 62.694 3.22679 -57.9569 1.78738 20.9426 0.25651 -2.64807 1.34645 -8.31697 5.56839 -0.0 0.0 -0.0 -0.60012 10.9965 2.55575 -16.2687 22.6495 -70.9951 0.178116 5.04247 -0.00784291 7.47316 -0.202732 0.932408 0.881719 -7.93713 -9.05251 0.0 0.0 0.0 -14.331 8.19823 4.05431 -8.50045 0.255545 1.27834 41.3289 13.6053 -5.02968 -15.911 0.0 0.0 -0.0 0.0 -0.0 32.3213 12.8162 -8.36729 0.594855 0.0249519 0.0878736 -17.8813 11.3523 -2.85948 21.4295 -0.0 -0.0 0.0 0.0 0.0 
3250.8 699.493 -518.122 -6.29326 54.1437 10.4963 -1.23402 -0.558555 -3.44762 -1.22747 -0.338178 -3.47613 -1.20122 0.472986 -3.46038 -1.21792 -0.0791072 -3.49162 1.58397 15.9001 7.74783 2.03926 21.6027 9.76148 -0.0 0.0 -0.0 6.23108 12.1859 11.9493 2.59418 -40.6784 62.0399 3.2416 -58.0746 1.79994 21.7946 0.246334 -2.75643 1.47378 -9.28962 6.01474 -0.0 0.0 -0.0 -0.335955 13.2504 2.27427 -16.8349 22.6435 -71.6809 0.177652 5.02941 -0.00780222 8.91389 -0.22774 1.11474 1.2784 -4.06513 -10.1867 0.0 0.0 0.0 -14.4244 7.87833 3.29724 -8.66581 0.258625 1.30353 41.1515 12.5744 -5.00135 -17.7096 0.0 0.0 -0.0 0.0 -0.0 32.1531 12.6546 -8.53314 0.56525 0.0236884 0.0835064 -16.8723 12.4913 -2.7169 21.8472 -0.0 -0.0 0.0 0.0 0.0 
3233.83 698.026 -531.754 -6.33585 54.5189 10.7837 -1.13928 -0.493954 -3.61859 -1.13204 -0.262849 -3.64264 -1.1094 0.579132 -3.60595 -1.12755 0.00276625 -3.6521 2.7809 15.964 7.01466 3.27128 21.9851 8.85154 -0.0 0.0 -0.0 5.94614 10.8196 11.4914 1.47284 -40.8574 62.7932 2.94481 -55.558 1.55149 20.063 0.265325 -2.53606 1.6425 -10.1417 6.79162 -0.0 0.0 -0.0 -0.0543914 13.7057 1.73291 -17.5304 22.4494 -71.6456 0.171518 4.8566 -0.00727362 8.14643 -0.214989 1.01754 1.32263 -5.59754 -11.0761 0.0 0.0 0.0 -14.9135 6.75124 2.39809 -9.83214 0.27828 1.48141 41.2263 11.4977 -4.99598 -17.3653 0.0 0.0 -0.0 0.0 -0.0 31.9534 10.4918 -8.58954 -1.99151 -0.0768612 -0.295948 -15.9081 19.6511 -2.71249 22.5592 -0.0 -0.0 0.0 0.0 0.0 
3201.87 698.656 -550.044 -3.61579 54.3135 8.44325 -1.19424 -0.587725 -3.37384 -1.18799 -0.371975 -3.40435 -1.16037 0.421029 -3.39864 -1.17647 -0.120681 -3.42246 4.6347 16.608 8.171 5.17735 21.5283 10.0526 -0.0 0.0 -0.0 6.09162 12.3226 11.7052 -0.167404 -39.6148 63.4564 2.46116 -50.6329 1.16439 17.7473 0.280298 -2.24068 1.49411 -9.76856 5.94591 -0.0 0.0 -0.0 0.470308 14.2381 0.683632 -18.3121 22.3408 -71.2257 0.181539 5.13885 -0.00814657 6.32788 -0.179586 0.787942 1.37599 -5.73451 -11.4855 0.0 0.0 0.0 -15.7413 5.86281 2.56429 -15.472 0.322079 2.34531 40.9985 12.9163 -4.99223 -13.7281 0.0 0.0 -0.0 0.0 -0.0 31.4245 12.2387 -9.90307 -10.1118 -0.282454 -1.52412 -10.0601 11.2352 -1.59549 23.5549 -0.0 -0.0 0.0 0.0 0.0 
3172.08 702.488 -564.639 -3.32834 54.4237 7.37361 -1.37248 -0.422972 -3.20828 -1.36678 -0.218072 -3.22867 -1.34951 0.541123 -3.1905 -1.36371 0.030727 -3.23587 8.27375 16.8687 6.95395 8.89977 21.9 8.47149 -0.0 0.0 -0.0 5.81891 11.1801 11.2622 -1.31401 -39.7345 64.6823 2.23431 -47.8959 0.992451 15.2573 0.283069 -1.92269 1.45083 -9.41757 5.80385 -0.0 0.0 -0.0 1.0672 14.6256 -0.537648 -18.5509 22.9843 -71.2167 0.181517 5.13826 -0.00814463 4.53228 -0.137494 0.562441 0.553164 -9.72238 -7.59919 0.0 0.0 0.0 -15.1198 6.53661 2.57309 -18.1857 0.312819 2.76153 38.2016 13.4898 -4.74805 -11.8646 0.0 0.0 -0.0 0.0 -0.0 30.9874 12.7365 -9.17736 -14.4517 -0.32046 -2.18878 -6.03927 6.99376 -0.929135 23.0856 -0.0 -0.0 0.0 0.0 0.0 
3153.66 705.715 -581.346 -3.03578 54.6761 7.1325 -1.46357 -0.22381 -3.15884 -1.45802 -0.0224542 -3.16667 -1.45225 0.722669 -3.08327 -1.46544 0.226909 -3.15862 10.3646 15.6271 6.16719 10.9059 19.9082 7.49304 -0.0 0.0 -0.0 5.62489 10.1344 10.9389 -3.16762 -37.4937 64.7941 2.16089 -46.9426 0.938388 14.6791 0.281735 -1.84885 1.43538 -11.3491 4.86201 -0.0 0.0 -0.0 1.96796 15.7805 -2.32961 -18.7145 22.2176 -70.5252 0.181221 5.12992 -0.00811822 4.97661 -0.148568 0.618121 0.149918 -9.11174 -4.74953 0.0 0.0 0.0 -13.2114 4.88674 1.11383 -22.9553 0.248848 3.49037 39.8887 11.9551 -4.88403 -10.4817 0.0 0.0 -0.0 0.0 -0.0 28.2971 7.3997 -8.1674 -14.2536 -0.319823 -2.15838 -2.88775 9.40043 -0.447018 22.1086 -0.0 -0.0 0.0 0.0 0.0 
3135.17 708.089 -596.947 -4.12924 54.4506 7.99075 -1.59989 -0.0234501 -3.11608 -1.59451 0.174784 -3.11126 -1.59989 0.909274 -2.98068 -1.61203 0.427357 -3.08675 8.92815 16.6354 7.76818 9.48838 20.5421 9.45128 -0.0 0.0 -0.0 5.6031 10.1126 10.9008 -4.0782 -38.5017 64.7275 1.93086 -43.7215 0.774727 13.7401 0.277981 -1.72897 1.41384 -11.2561 4.7568 -0.0 0.0 -0.0 2.2422 15.9442 -2.89644 -16.7829 22.5704 -70.9934 0.207376 5.86544 -0.0106239 4.43723 -0.135069 0.550542 0.506317 -9.14632 -7.07079 0.0 0.0 0.0 -12.4796 3.92652 0.569229 -25.123 0.199765 3.81939 37.527 11.0372 -4.66061 -9.93767 0.0 0.0 -0.0 0.0 -0.0 28.1559 7.73309 -8.43685 -15.5253 -0.322087 -2.35348 -1.15993 10.6103 -0.180088 21.6182 -0.0 -0.0 0.0 0.0 0.0 
3117.34 714.781 -608.072 -3.55724 54.6915 7.47189 -1.55376 -0.0427203 -3.03458 -1.54865 0.150375 -3.03116 -1.55272 0.864058 -2.90939 -1.56431 0.393951 -3.00923 9.67344 16.6524 7.94404 10.2207 20.1624 9.666 -0.0 0.0 -0.0 5.52053 10.1886 10.7549 -5.74189 -37.9439 65.2208 1.73347 -40.6495 0.642123 13.1354 0.274524 -1.65182 1.38664 -11.9485 4.27111 -0.0 0.0 -0.0 3.00674 17.5148 -4.37658 -15.9388 22.8372 -70.0345 0.228869 6.46844 -0.0129329 3.98246 -0.123194 0.493663 0.181253 -10.4146 -5.47299 0.0 0.0 0.0 -11.5182 3.65746 0.861021 -26.7338 0.155248 4.06257 36.8697 11.0629 -4.59905 -9.59131 0.0 0.0 -0.0 0.0 -0.0 26.0222 6.1166 -8.4034 -15.3629 -0.322039 -2.32857 0.21007 9.56312 0.0323023 20.7981 -0.0 -0.0 0.0 0.0 0.0 
3088.21 718.943 -620.108 -3.18344 55.2553 7.22076 -1.64694 -0.296251 -2.98033 -1.642 -0.106091 -2.99312 -1.63201 0.609609 -2.93236 -1.64398 0.139064 -2.99177 11.4583 16.9955 7.66674 12.0312 20.4008 9.33267 -0.0 0.0 -0.0 5.8519 15.7367 11.1917 -6.56675 -37.0139 66.7605 1.49062 -36.4402 0.490695 10.8207 0.253772 -1.3569 1.32129 -11.6808 3.94628 -0.0 0.0 -0.0 2.73896 16.4195 -3.90811 -15.4021 24.2704 -69.0273 0.352118 9.89468 -0.0304803 1.81176 -0.0603027 0.223534 -0.22717 -13.0676 -3.94357 0.0 0.0 0.0 -7.6805 2.3402 0.409405 -34.6563 -0.162254 5.23593 40.0012 11.0448 -4.88517 -9.33085 0.0 0.0 -0.0 0.0 -0.0 23.0567 3.34801 -7.50581 -16.2351 -0.321468 -2.46238 7.17866 8.58876 1.07496 20.1789 -0.0 -0.0 0.0 0.0 0.0 
3064.58 723.95 -630.886 -1.75073 55.3316 4.86892 -1.55458 -0.505002 -2.59487 -1.5509 -0.338918 -2.62173 -1.53167 0.290095 -2.62757 -1.54128 -0.128372 -2.64041 12.6772 17.1792 7.66653 13.2474 20.2937 9.35804 -0.0 0.0 -0.0 5.68168 16.4346 10.8921 -8.20073 -37.6546 66.9324 1.14617 -29.586 0.30269 8.88443 0.227274 -1.11101 1.42267 -12.544 4.25407 -0.0 0.0 -0.0 2.98673 16.9285 -4.38869 -14.2054 25.1965 -68.4073 0.438172 12.2467 -0.0470079 0.790646 -0.0271862 0.0973181 -0.178443 -14.2709 -4.73655 0.0 0.0 0.0 -4.37081 2.47528 0.796489 -40.6871 -0.511056 6.09419 40.3824 10.9225 -4.9175 -8.90021 0.0 0.0 -0.0 0.0 -0.0 20.2732 1.62941 -5.55637 -17.4435 -0.317311 -2.64773 9.95374 9.90938 1.48609 19.195 -0.0 -0.0 0.0 0.0 0.0 
3048.12 723.846 -644.835 -0.596882 53.0117 4.26585 -1.52583 -0.278939 -2.55302 -1.52221 -0.115973 -2.56558 -1.51382 0.492881 -2.52049 -1.52267 0.0887672 -2.56667 12.1027 17.0872 8.66987 12.6141 19.3758 10.6243 -0.0 0.0 -0.0 5.37243 17.9227 10.354 -10.2306 -37.857 66.729 0.916001 -24.4063 0.198103 7.32748 0.199949 -0.914008 1.38581 -10.382 4.94644 -0.0 0.0 -0.0 3.40123 17.2765 -5.24203 -11.58 25.2204 -68.512 0.517028 14.366 -0.0651604 -0.160272 0.00567476 -0.0196818 -0.276765 -13.9831 -4.00516 0.0 0.0 0.0 -2.34767 2.88809 0.049011 -44.3951 -0.769787 6.6023 40.2993 11.9583 -4.9203 -8.65287 0.0 0.0 -0.0 0.0 -0.0 18.2826 -0.706319 -6.46312 -18.0105 -0.314013 -2.73467 14.9729 10.2668 2.19387 18.3143 -0.0 -0.0 0.0 0.0 0.0 
